<?xml version="1.0" encoding="utf-8"?>
<!-- Generator: Adobe Illustrator 22.0.1, SVG Export Plug-In . SVG Version: 6.00 Build 0)  -->
<svg version="1.1" xmlns="http://www.w3.org/2000/svg" xmlns:xlink="http://www.w3.org/1999/xlink" x="0px" y="0px"
	 viewBox="0 0 485 485" style="enable-background:new 0 0 485 485;" xml:space="preserve">
<style type="text/css">
	.st0{fill:none;stroke:#5A6EAA;stroke-width:1.0507;stroke-miterlimit:10;}
	.st1{fill:#5A6EAA;}
	.st2{fill:none;stroke:#5A6EAA;stroke-width:1.1362;stroke-miterlimit:10;}
	.st3{fill:none;stroke:#5A6EAA;stroke-miterlimit:10;}
	.st4{fill:none;stroke:#F2339C;stroke-miterlimit:10;}
	.st5{display:none;}
	.st6{display:inline;fill:none;stroke:#5A6EAA;stroke-width:1.0507;stroke-miterlimit:10;}
</style>
<g id="Layer_1">
	<circle class="st0" cx="73.119" cy="241.503" r="7.059"/>
	<circle class="st0" cx="411.881" cy="241.503" r="7.059"/>
	<g>
		<polygon class="st0" points="80.178,215.621 73.119,227.385 66.06,215.621 		"/>
	</g>
	<g>
		<polygon class="st0" points="418.828,215.621 411.769,227.385 404.71,215.621 		"/>
	</g>
	<g>
		<polygon class="st0" points="80.178,267.385 73.119,255.621 66.06,267.385 		"/>
	</g>
	<g>
		<polygon class="st0" points="418.828,267.385 411.769,255.621 404.71,267.385 		"/>
	</g>
	<line class="st2" x1="73.119" y1="199.15" x2="73.119" y2="234.444"/>
	<circle class="st0" cx="73.119" cy="15.621" r="7.059"/>
	<g>
		<polygon class="st0" points="66.06,41.503 73.119,29.738 80.178,41.503 		"/>
	</g>
	<line class="st2" x1="73.119" y1="57.974" x2="73.119" y2="22.68"/>
	<circle class="st0" cx="411.881" cy="15.621" r="7.059"/>
	<g>
		<polygon class="st0" points="404.822,41.503 411.881,29.738 418.94,41.503 		"/>
	</g>
	<line class="st2" x1="411.881" y1="57.974" x2="411.881" y2="22.68"/>
	<g>
		<circle class="st0" cx="411.881" cy="467.385" r="7.059"/>
		<g>
			<polygon class="st0" points="418.94,441.503 411.881,453.268 404.822,441.503 			"/>
		</g>
		<line class="st2" x1="411.881" y1="425.033" x2="411.881" y2="460.327"/>
	</g>
	<g>
		<circle class="st0" cx="73.119" cy="467.385" r="7.059"/>
		<g>
			<polygon class="st0" points="80.178,441.503 73.119,453.268 66.06,441.503 			"/>
		</g>
		<line class="st2" x1="73.119" y1="425.033" x2="73.119" y2="460.327"/>
	</g>
	<line class="st2" x1="73.119" y1="248.562" x2="73.119" y2="283.856"/>
	<line class="st2" x1="411.881" y1="199.15" x2="411.881" y2="234.444"/>
	<line class="st2" x1="411.881" y1="248.562" x2="411.881" y2="283.856"/>
	<line class="st2" x1="80.178" y1="241.503" x2="235.532" y2="241.503"/>
	<line class="st2" x1="249.649" y1="241.503" x2="404.822" y2="241.503"/>
	<circle class="st0" cx="242.59" cy="241.503" r="7.059"/>
	<g>
		<polygon class="st0" points="246.12,221.503 242.59,227.385 239.061,221.503 		"/>
	</g>
	<g>
		<polygon class="st0" points="246.12,261.503 242.59,255.621 239.061,261.503 		"/>
	</g>
	<circle class="st0" cx="242.59" cy="15.621" r="7.059"/>
	<g>
		<polygon class="st0" points="239.061,35.621 242.59,29.738 246.12,35.621 		"/>
	</g>
	<line class="st0" x1="242.59" y1="93.131" x2="242.59" y2="22.68"/>
	<g>
		<circle class="st0" cx="242.41" cy="467.385" r="7.059"/>
		<g>
			<polygon class="st0" points="245.939,447.385 242.41,453.268 238.88,447.385 			"/>
		</g>
		<line class="st0" x1="242.41" y1="389.738" x2="242.41" y2="460.327"/>
	</g>
	<line class="st2" x1="242.59" y1="163.719" x2="242.59" y2="234.444"/>
	<line class="st2" x1="242.59" y1="248.562" x2="242.59" y2="319.15"/>
	<g>
		<rect x="212.586" y="109.891" class="st0" width="59.535" height="37.206"/>
		<g>
			<circle class="st0" cx="242.41" cy="128.425" r="35.294"/>
		</g>
		<g>
			<path class="st1" d="M235.512,129.832v-2.571h-1.219v-0.453h2.977v0.453h-1.219v2.571H235.512z"/>
			<path class="st1" d="M240.51,129.832l-0.347-0.758h-1.597l-0.352,0.758h-0.563l1.428-3.024h0.585l1.427,3.024H240.51z
				 M239.362,127.321l-0.609,1.313h1.211L239.362,127.321z"/>
			<path class="st1" d="M244.517,127.643c-0.045-0.119-0.105-0.213-0.179-0.284c-0.073-0.071-0.165-0.121-0.275-0.153
				c-0.11-0.031-0.247-0.047-0.411-0.047c-0.271,0-0.481,0.036-0.631,0.108c-0.15,0.072-0.225,0.176-0.225,0.311
				c0,0.127,0.049,0.223,0.146,0.288c0.097,0.065,0.267,0.116,0.51,0.153l0.627,0.093c0.353,0.054,0.612,0.153,0.777,0.298
				c0.165,0.145,0.248,0.345,0.248,0.599c0,0.285-0.123,0.506-0.367,0.663c-0.244,0.157-0.587,0.235-1.027,0.235
				c-0.48,0-0.844-0.083-1.091-0.25c-0.247-0.166-0.392-0.425-0.434-0.775h0.543c0.037,0.209,0.133,0.361,0.29,0.455
				c0.156,0.095,0.387,0.142,0.692,0.142c0.274,0,0.484-0.041,0.629-0.123c0.145-0.082,0.218-0.198,0.218-0.347
				c0-0.124-0.05-0.222-0.15-0.292c-0.101-0.07-0.256-0.121-0.468-0.152l-0.542-0.081c-0.28-0.042-0.502-0.1-0.665-0.173
				c-0.164-0.073-0.283-0.169-0.356-0.286c-0.074-0.117-0.11-0.262-0.11-0.434c0-0.271,0.122-0.482,0.367-0.633
				c0.244-0.151,0.586-0.227,1.026-0.227c0.272,0,0.498,0.03,0.682,0.089c0.183,0.059,0.331,0.15,0.443,0.271
				c0.111,0.121,0.192,0.28,0.243,0.474L244.517,127.643z"/>
			<path class="st1" d="M248.921,129.832l-1.215-1.584l-0.601,0.475v1.109h-0.538v-3.024h0.538v1.377l1.66-1.377h0.665l-1.339,1.127
				l1.466,1.897H248.921z"/>
		</g>
	</g>
	<g>
		
			<rect x="212.879" y="335.91" transform="matrix(4.503515e-11 -1 1 4.503515e-11 -111.866 597.1592)" class="st0" width="59.535" height="37.206"/>
		<g>
			<circle class="st0" cx="242.59" cy="354.444" r="35.294"/>
		</g>
		<line class="st0" x1="261.169" y1="350.041" x2="223.951" y2="350.041"/>
		<line class="st0" x1="261.169" y1="333.177" x2="223.951" y2="333.177"/>
		<line class="st0" x1="261.169" y1="341.609" x2="223.951" y2="341.609"/>
	</g>
	<g>
		<path class="st1" d="M233.197,365.027l-0.682-1.19c-0.026,0.003-0.05,0.004-0.074,0.004s-0.048,0-0.074,0h-0.877v1.186h-0.517
			v-3.024h1.444c0.811,0,1.216,0.307,1.216,0.919c0,0.409-0.198,0.681-0.593,0.813l0.762,1.292H233.197z M232.383,363.405
			c0.243,0,0.423-0.039,0.54-0.119c0.117-0.079,0.176-0.202,0.176-0.369c0-0.169-0.056-0.292-0.167-0.366
			c-0.112-0.075-0.292-0.112-0.54-0.112h-0.902v0.966H232.383z"/>
		<path class="st1" d="M235.115,365.027v-3.024h2.465v0.454h-1.927v0.787h1.834v0.454h-1.834v0.877h2.02l-0.076,0.453H235.115z"/>
		<path class="st1" d="M241.227,362.838c-0.046-0.119-0.105-0.214-0.179-0.284c-0.073-0.07-0.165-0.121-0.275-0.152
			c-0.11-0.031-0.247-0.047-0.411-0.047c-0.271,0-0.481,0.036-0.631,0.108c-0.15,0.072-0.225,0.176-0.225,0.311
			c0,0.128,0.049,0.223,0.146,0.288c0.097,0.065,0.267,0.116,0.51,0.152l0.627,0.094c0.353,0.053,0.612,0.153,0.777,0.298
			c0.165,0.145,0.248,0.345,0.248,0.599c0,0.285-0.123,0.506-0.367,0.663c-0.244,0.156-0.587,0.235-1.027,0.235
			c-0.48,0-0.844-0.083-1.091-0.25c-0.247-0.167-0.392-0.425-0.434-0.775h0.542c0.037,0.209,0.133,0.361,0.29,0.455
			c0.156,0.095,0.387,0.142,0.692,0.142c0.274,0,0.484-0.041,0.629-0.123c0.145-0.082,0.218-0.198,0.218-0.347
			c0-0.124-0.05-0.221-0.15-0.292c-0.101-0.07-0.256-0.121-0.468-0.152l-0.542-0.081c-0.28-0.042-0.502-0.1-0.665-0.174
			c-0.164-0.073-0.283-0.168-0.356-0.285c-0.074-0.117-0.11-0.262-0.11-0.434c0-0.271,0.122-0.483,0.367-0.634
			c0.244-0.151,0.586-0.226,1.026-0.226c0.272,0,0.498,0.03,0.682,0.089c0.183,0.059,0.331,0.15,0.443,0.271
			c0.111,0.121,0.192,0.279,0.243,0.474L241.227,362.838z"/>
		<path class="st1" d="M245.577,362.003h0.538v1.783c0,0.44-0.119,0.77-0.358,0.988c-0.239,0.219-0.598,0.329-1.078,0.329
			c-0.48,0-0.84-0.11-1.078-0.329c-0.239-0.219-0.358-0.548-0.358-0.988v-1.783h0.538v1.809c0,0.287,0.072,0.5,0.218,0.637
			c0.145,0.137,0.372,0.205,0.68,0.205c0.307,0,0.534-0.068,0.68-0.205c0.145-0.137,0.219-0.349,0.219-0.637V362.003z"/>
		<path class="st1" d="M247.715,365.027v-3.024h0.538v2.571h1.918l-0.077,0.453H247.715z"/>
		<path class="st1" d="M251.942,365.027v-2.571h-1.219v-0.454h2.977v0.454h-1.219v2.571H251.942z"/>
	</g>
	<g>
		<rect x="13.44" y="91.493" class="st0" width="119.071" height="74.412"/>
		<g>
			<circle class="st0" cx="73.088" cy="128.562" r="70.588"/>
		</g>
		<g>
			
				<rect x="13.726" y="317.375" transform="matrix(4.492857e-11 -1 1 4.492857e-11 -281.3193 427.8427)" class="st0" width="119.071" height="74.412"/>
			<g>
				<circle class="st0" cx="73.149" cy="354.444" r="70.588"/>
			</g>
			<line class="st0" x1="110.306" y1="345.637" x2="35.871" y2="345.637"/>
			<line class="st0" x1="110.306" y1="311.909" x2="35.871" y2="311.909"/>
			<line class="st0" x1="110.306" y1="328.773" x2="35.871" y2="328.773"/>
		</g>
		<g>
			<path class="st1" d="M59.293,131.375v-5.142h-2.44v-0.906h5.955v0.906h-2.44v5.142H59.293z"/>
			<path class="st1" d="M69.288,131.375l-0.695-1.517H65.4l-0.703,1.517H63.57l2.855-6.048h1.169l2.855,6.048H69.288z
				 M66.992,126.352l-1.22,2.626h2.423L66.992,126.352z"/>
			<path class="st1" d="M77.301,126.996c-0.09-0.237-0.209-0.426-0.356-0.567c-0.147-0.141-0.33-0.243-0.551-0.305
				c-0.22-0.062-0.494-0.093-0.822-0.093c-0.542,0-0.962,0.072-1.262,0.216c-0.299,0.144-0.449,0.352-0.449,0.622
				c0,0.254,0.097,0.446,0.292,0.576c0.195,0.13,0.535,0.232,1.021,0.305l1.253,0.186c0.706,0.108,1.224,0.307,1.554,0.597
				c0.33,0.291,0.496,0.691,0.496,1.199c0,0.571-0.244,1.013-0.733,1.326c-0.488,0.314-1.173,0.47-2.054,0.47
				c-0.96,0-1.687-0.166-2.181-0.5c-0.494-0.333-0.783-0.85-0.868-1.55h1.084c0.073,0.418,0.267,0.722,0.58,0.911
				c0.314,0.19,0.776,0.284,1.385,0.284c0.548,0,0.967-0.082,1.258-0.245c0.291-0.164,0.436-0.396,0.436-0.695
				c0-0.248-0.101-0.443-0.301-0.585c-0.201-0.141-0.513-0.243-0.936-0.305l-1.084-0.161c-0.559-0.084-1.002-0.2-1.33-0.347
				c-0.327-0.147-0.565-0.338-0.711-0.572s-0.221-0.524-0.221-0.868c0-0.543,0.244-0.964,0.733-1.266
				c0.489-0.303,1.173-0.454,2.054-0.454c0.542,0,0.997,0.059,1.364,0.178c0.367,0.119,0.662,0.3,0.885,0.543
				c0.223,0.243,0.385,0.559,0.487,0.949L77.301,126.996z"/>
			<path class="st1" d="M86.11,131.375l-2.431-3.168l-1.203,0.949v2.219H81.4v-6.048h1.075v2.753l3.321-2.753h1.33l-2.677,2.253
				l2.931,3.795H86.11z"/>
		</g>
		<g>
			<path class="st1" d="M54.362,375.61l-1.364-2.38c-0.051,0.006-0.101,0.008-0.148,0.008c-0.048,0-0.098,0-0.148,0h-1.754v2.372
				h-1.033v-6.048h2.888c1.621,0,2.431,0.613,2.431,1.838c0,0.819-0.396,1.361-1.186,1.626l1.525,2.584H54.362z M52.736,372.366
				c0.485,0,0.845-0.079,1.08-0.237c0.234-0.159,0.352-0.404,0.352-0.737c0-0.339-0.111-0.583-0.334-0.733
				c-0.223-0.15-0.583-0.225-1.08-0.225h-1.804v1.932H52.736z"/>
			<path class="st1" d="M58.199,375.61v-6.048h4.929v0.906h-3.854v1.576h3.668v0.906h-3.668v1.753h4.041l-0.152,0.906H58.199z"/>
			<path class="st1" d="M70.422,371.231c-0.09-0.237-0.209-0.426-0.356-0.567c-0.147-0.141-0.33-0.243-0.551-0.305
				c-0.22-0.062-0.494-0.093-0.822-0.093c-0.542,0-0.962,0.072-1.262,0.216c-0.299,0.144-0.449,0.352-0.449,0.622
				c0,0.254,0.097,0.446,0.292,0.576c0.195,0.13,0.535,0.232,1.021,0.305l1.253,0.186c0.706,0.108,1.224,0.307,1.554,0.597
				c0.33,0.291,0.496,0.691,0.496,1.199c0,0.571-0.244,1.013-0.733,1.326c-0.488,0.314-1.173,0.47-2.054,0.47
				c-0.96,0-1.687-0.166-2.181-0.5c-0.494-0.333-0.783-0.85-0.868-1.55h1.084c0.073,0.418,0.267,0.722,0.58,0.911
				c0.314,0.19,0.776,0.284,1.385,0.284c0.548,0,0.967-0.082,1.258-0.245c0.291-0.164,0.436-0.396,0.436-0.695
				c0-0.248-0.101-0.443-0.301-0.585c-0.201-0.141-0.513-0.243-0.936-0.305l-1.084-0.161c-0.559-0.084-1.002-0.2-1.33-0.347
				c-0.327-0.147-0.565-0.338-0.711-0.572s-0.221-0.524-0.221-0.868c0-0.543,0.244-0.964,0.733-1.266
				c0.489-0.303,1.173-0.454,2.054-0.454c0.542,0,0.997,0.059,1.364,0.178c0.367,0.119,0.662,0.3,0.885,0.543
				c0.223,0.243,0.385,0.559,0.487,0.949L70.422,371.231z"/>
			<path class="st1" d="M79.121,369.562h1.076v3.567c0,0.881-0.239,1.54-0.716,1.978c-0.477,0.438-1.195,0.656-2.156,0.656
				c-0.96,0-1.679-0.219-2.156-0.656c-0.478-0.438-0.716-1.097-0.716-1.978v-3.567h1.076v3.617c0,0.576,0.145,1.001,0.436,1.275
				c0.291,0.274,0.744,0.411,1.359,0.411c0.616,0,1.068-0.137,1.359-0.411c0.291-0.274,0.436-0.699,0.436-1.275V369.562z"/>
			<path class="st1" d="M83.399,375.61v-6.048h1.075v5.142h3.838l-0.152,0.906H83.399z"/>
			<path class="st1" d="M91.853,375.61v-5.142h-2.44v-0.906h5.954v0.906h-2.44v5.142H91.853z"/>
		</g>
	</g>
	<rect x="352.489" y="317.102" class="st0" width="119.071" height="74.412"/>
	<g>
		<circle class="st0" cx="411.912" cy="354.444" r="70.588"/>
	</g>
	
		<rect x="352.388" y="91.219" transform="matrix(4.494367e-11 -1 1 4.494367e-11 283.4982 540.3486)" class="st0" width="119.071" height="74.412"/>
	<g>
		<circle class="st0" cx="411.851" cy="128.562" r="70.588"/>
	</g>
	<line class="st0" x1="448.967" y1="119.481" x2="374.532" y2="119.481"/>
	<line class="st0" x1="448.967" y1="85.754" x2="374.532" y2="85.754"/>
	<line class="st0" x1="448.967" y1="102.618" x2="374.532" y2="102.618"/>
	<g>
		<path class="st1" d="M398.341,356.984v-5.142h-2.44v-0.906h5.955v0.906h-2.44v5.142H398.341z"/>
		<path class="st1" d="M408.336,356.984l-0.695-1.517h-3.193l-0.703,1.517h-1.127l2.855-6.048h1.169l2.855,6.048H408.336z
			 M406.041,351.961l-1.22,2.626h2.423L406.041,351.961z"/>
		<path class="st1" d="M416.349,352.605c-0.09-0.237-0.209-0.426-0.356-0.567c-0.147-0.141-0.33-0.243-0.551-0.305
			c-0.22-0.062-0.494-0.093-0.822-0.093c-0.542,0-0.962,0.072-1.262,0.216c-0.299,0.144-0.449,0.352-0.449,0.622
			c0,0.254,0.097,0.446,0.292,0.576c0.195,0.13,0.535,0.232,1.021,0.305l1.253,0.186c0.706,0.108,1.224,0.307,1.554,0.597
			c0.33,0.291,0.496,0.691,0.496,1.199c0,0.571-0.244,1.013-0.733,1.326c-0.488,0.314-1.173,0.47-2.054,0.47
			c-0.96,0-1.687-0.166-2.181-0.5c-0.494-0.333-0.783-0.85-0.868-1.55h1.084c0.073,0.418,0.267,0.722,0.58,0.911
			c0.314,0.19,0.776,0.284,1.385,0.284c0.548,0,0.967-0.082,1.258-0.245c0.291-0.164,0.436-0.396,0.436-0.695
			c0-0.248-0.101-0.443-0.301-0.585c-0.201-0.141-0.513-0.243-0.936-0.305l-1.084-0.161c-0.559-0.084-1.002-0.2-1.33-0.347
			c-0.327-0.147-0.565-0.338-0.711-0.572s-0.221-0.524-0.221-0.868c0-0.543,0.244-0.964,0.733-1.266
			c0.489-0.303,1.173-0.454,2.054-0.454c0.542,0,0.997,0.059,1.364,0.178c0.367,0.119,0.662,0.3,0.885,0.543
			c0.223,0.243,0.385,0.559,0.487,0.949L416.349,352.605z"/>
		<path class="st1" d="M425.158,356.984l-2.431-3.168l-1.203,0.949v2.219h-1.075v-6.048h1.075v2.753l3.321-2.753h1.33l-2.677,2.253
			l2.931,3.795H425.158z"/>
	</g>
	<g>
		<path class="st1" d="M393.024,149.455l-1.363-2.38c-0.051,0.006-0.101,0.008-0.148,0.008c-0.048,0-0.098,0-0.148,0h-1.754v2.372
			h-1.033v-6.048h2.888c1.621,0,2.431,0.613,2.431,1.838c0,0.819-0.396,1.361-1.186,1.626l1.525,2.584H393.024z M391.398,146.211
			c0.485,0,0.845-0.079,1.08-0.237c0.234-0.159,0.352-0.404,0.352-0.737c0-0.339-0.111-0.583-0.334-0.733
			c-0.223-0.15-0.583-0.225-1.08-0.225h-1.804v1.932H391.398z"/>
		<path class="st1" d="M396.861,149.455v-6.048h4.929v0.906h-3.854v1.576h3.668v0.906h-3.668v1.753h4.041l-0.152,0.906H396.861z"/>
		<path class="st1" d="M409.084,145.075c-0.09-0.237-0.209-0.426-0.356-0.567c-0.147-0.141-0.33-0.243-0.551-0.305
			c-0.22-0.062-0.494-0.093-0.822-0.093c-0.542,0-0.962,0.072-1.262,0.216c-0.299,0.144-0.449,0.352-0.449,0.622
			c0,0.254,0.097,0.446,0.292,0.576c0.195,0.13,0.535,0.232,1.021,0.305l1.253,0.186c0.706,0.108,1.224,0.307,1.554,0.597
			c0.33,0.291,0.496,0.691,0.496,1.199c0,0.571-0.244,1.013-0.733,1.326c-0.488,0.314-1.173,0.47-2.054,0.47
			c-0.96,0-1.687-0.166-2.181-0.5c-0.494-0.333-0.783-0.85-0.868-1.55h1.084c0.073,0.418,0.267,0.722,0.58,0.911
			c0.314,0.19,0.776,0.284,1.385,0.284c0.548,0,0.967-0.082,1.258-0.245c0.291-0.164,0.436-0.396,0.436-0.695
			c0-0.248-0.101-0.443-0.301-0.585c-0.201-0.141-0.513-0.243-0.936-0.305l-1.084-0.161c-0.559-0.084-1.002-0.2-1.33-0.347
			c-0.327-0.147-0.565-0.338-0.711-0.572c-0.147-0.234-0.221-0.524-0.221-0.868c0-0.543,0.244-0.964,0.733-1.266
			c0.489-0.303,1.173-0.454,2.054-0.454c0.542,0,0.997,0.059,1.363,0.178c0.367,0.119,0.662,0.3,0.885,0.543
			c0.223,0.243,0.385,0.559,0.487,0.949L409.084,145.075z"/>
		<path class="st1" d="M417.783,143.406h1.076v3.567c0,0.881-0.239,1.54-0.716,1.978c-0.477,0.438-1.195,0.656-2.156,0.656
			c-0.96,0-1.679-0.219-2.156-0.656c-0.478-0.438-0.716-1.097-0.716-1.978v-3.567h1.076v3.617c0,0.576,0.145,1.001,0.436,1.275
			c0.291,0.274,0.744,0.411,1.359,0.411c0.616,0,1.068-0.137,1.359-0.411c0.291-0.274,0.436-0.699,0.436-1.275V143.406z"/>
		<path class="st1" d="M422.061,149.455v-6.048h1.075v5.142h3.838l-0.152,0.906H422.061z"/>
		<path class="st1" d="M430.515,149.455v-5.142h-2.44v-0.906h5.954v0.906h-2.44v5.142H430.515z"/>
	</g>
</g>
<g id="Layer_2" class="st5">
	<rect x="-87.285" y="-85.997" class="st6" width="660" height="660"/>
</g>
</svg>
